<?xml version="1.0" standalone="no"?>
<!DOCTYPE svg PUBLIC "-//W3C//DTD SVG 20010904//EN"
 "http://www.w3.org/TR/2001/REC-SVG-20010904/DTD/svg10.dtd">
<svg version="1.0" xmlns="http://www.w3.org/2000/svg"
 width="220.000000pt" height="220.000000pt" viewBox="0 0 220.000000 220.000000"
 preserveAspectRatio="xMidYMid meet">
<metadata>
Created by potrace 1.11, written by Peter Selinger 2001-2013
</metadata>
<g transform="translate(0.000000,220.000000) scale(0.100000,-0.100000)"
fill="#000000" stroke="none">
<path d="M1059 1974 c-19 -23 -20 -99 -2 -135 18 -35 13 -52 -21 -74 -22 -15
-27 -15 -61 4 -52 27 -99 9 -75 -29 6 -9 27 -15 62 -15 53 -1 98 -20 98 -41 0
-22 -30 -23 -76 -3 -83 37 -176 5 -155 -54 18 -48 102 -57 167 -17 31 20 68
18 61 -3 -7 -21 -151 -87 -192 -88 -64 -2 -64 -2 -58 35 10 62 -39 104 -77 66
-22 -22 -17 -54 13 -88 20 -22 20 -22 1 -36 -48 -36 -132 -39 -189 -7 -69 39
-87 164 -31 219 34 34 102 38 135 8 32 -29 25 -85 -12 -106 -27 -14 -29 -14
-47 8 -23 28 -30 28 -23 1 12 -43 90 -44 108 -2 20 45 16 79 -11 106 -15 15
-34 27 -43 28 -9 0 -24 2 -35 4 -28 5 -66 -12 -92 -42 -62 -72 -35 -202 49
-242 23 -11 53 -21 67 -22 41 -4 108 11 132 31 16 12 46 19 95 22 60 3 84 10
153 46 l81 43 82 -41 c85 -42 148 -58 206 -54 19 2 40 -4 48 -11 17 -17 77
-35 118 -35 17 0 49 9 71 19 109 50 139 200 52 262 -72 52 -178 9 -178 -71 0
-57 85 -97 109 -51 15 27 3 33 -20 10 -16 -16 -23 -17 -40 -9 -43 24 -41 75 5
112 43 36 124 11 147 -44 15 -37 5 -112 -21 -148 -36 -50 -129 -73 -199 -49
-37 13 -37 13 -11 64 17 34 18 42 6 59 -17 26 -58 32 -76 11 -12 -15 -16 -51
-8 -85 4 -19 -50 -21 -107 -4 -51 15 -155 66 -155 76 0 4 9 12 19 17 14 8 30
6 63 -9 70 -31 114 -33 145 -6 24 21 25 24 12 52 -13 27 -19 29 -69 30 -30 1
-59 -2 -65 -6 -33 -24 -105 -21 -105 5 0 13 49 51 62 47 64 -18 90 -19 111 -2
21 18 21 19 4 38 -20 22 -59 22 -97 2 -20 -11 -35 -6 -73 24 -16 12 -16 16 -2
42 21 41 20 117 -3 137 -23 21 -36 21 -53 1z m48 -31 c10 -30 2 -88 -16 -106
-20 -20 -41 75 -25 117 10 25 31 19 41 -11z m14 -174 l29 -20 -29 -25 c-34
-29 -40 -29 -69 -6 l-21 17 27 27 c15 15 29 27 30 27 2 1 17 -8 33 -20z m-155
-21 c4 -5 -4 -8 -17 -6 -12 1 -24 8 -26 15 -5 14 34 6 43 -9z m302 5 c-2 -14
-11 -17 -33 -15 -37 5 -44 10 -25 22 26 17 62 12 58 -7z m-291 -88 c29 -12 33
-18 23 -29 -30 -38 -124 -43 -147 -10 -31 47 47 71 124 39z m349 -6 c18 -15
18 -24 -1 -43 -19 -18 -82 -13 -127 11 l-33 17 55 17 c58 18 83 17 106 -2z
m-215 -5 c10 -13 10 -17 -2 -25 -30 -19 -67 2 -46 27 16 18 32 17 48 -2z
m-320 -66 c9 -36 -12 -68 -34 -50 -22 18 -31 63 -15 74 22 14 41 4 49 -24z
m652 4 c8 -38 -37 -90 -49 -58 -12 31 -11 52 3 68 17 19 40 14 46 -10z"/>
<path d="M281 1274 c-34 -28 -41 -68 -19 -104 10 -16 9 -22 -8 -37 -43 -37
-57 -71 -50 -116 9 -55 30 -86 71 -103 50 -21 96 -17 149 11 37 20 48 22 52
11 8 -20 59 -39 82 -32 19 6 104 101 116 129 3 8 11 4 25 -12 28 -32 26 -49
-5 -53 -38 -4 -55 -35 -30 -54 27 -20 40 -18 74 11 39 33 60 32 64 -2 2 -16 9
-28 17 -28 15 0 16 2 49 77 42 95 88 120 75 42 -12 -75 41 -125 97 -92 24 13
28 14 36 0 14 -21 61 -18 87 6 22 21 23 21 34 3 16 -26 63 -32 95 -13 16 9 28
20 28 23 0 17 77 2 98 -19 24 -24 43 -21 82 15 l24 23 12 -22 c21 -38 71 -40
97 -4 5 7 11 6 17 -6 13 -21 63 -32 88 -19 11 6 38 40 61 76 29 45 48 65 61
65 19 0 20 -5 15 -50 -8 -65 6 -90 49 -90 33 0 76 33 76 58 0 18 -15 14 -35
-8 -34 -38 -50 -22 -50 50 0 62 -1 65 -26 68 -22 3 -25 7 -21 31 8 54 -59 67
-79 15 -6 -18 -5 -31 7 -49 15 -22 14 -27 -20 -80 -41 -64 -63 -77 -82 -50
-16 22 -19 106 -4 121 12 12 3 44 -12 44 -13 0 -38 -64 -38 -100 0 -39 -44
-88 -64 -71 -16 13 -14 91 3 134 9 24 8 27 -9 27 -11 0 -20 -5 -20 -11 0 -6
-7 -3 -16 5 -45 45 -115 -9 -128 -100 -3 -20 -42 -32 -56 -17 -5 4 -5 27 -1
50 9 49 -4 77 -35 71 -17 -3 -19 -12 -19 -72 0 -55 -4 -71 -17 -80 -13 -8 -23
-8 -35 0 -15 10 -17 24 -15 78 2 60 1 66 -18 66 -19 0 -24 -10 -21 -37 1 -7
-8 -35 -20 -63 -18 -41 -26 -50 -43 -48 -18 3 -21 11 -24 57 -2 30 2 59 7 64
14 14 14 44 0 53 -21 13 -41 -24 -46 -84 -6 -70 -31 -104 -61 -86 -12 8 -17
27 -18 71 -2 72 -7 83 -39 83 -25 0 -65 -42 -65 -67 0 -8 -4 -12 -9 -9 -5 3
-8 0 -7 -7 0 -6 -3 -13 -9 -13 -13 -2 -9 9 23 75 30 62 42 162 22 186 -22 27
-48 17 -70 -25 -15 -30 -21 -65 -25 -145 -2 -58 -7 -110 -10 -115 -11 -18 -24
-10 -41 25 -9 20 -25 40 -35 46 -15 8 -17 14 -9 29 5 10 10 30 10 43 0 31 -42
43 -65 17 -17 -19 -20 -66 -5 -75 10 -6 -14 -48 -52 -89 -10 -11 -18 -23 -18
-27 0 -16 -35 -18 -57 -3 -29 18 -28 45 5 134 28 74 34 156 15 176 -22 22 -35
14 -60 -36 -18 -36 -23 -64 -24 -143 l-1 -98 -44 -25 c-33 -19 -52 -24 -79
-20 -69 11 -89 32 -94 97 -4 55 26 84 85 84 37 0 48 4 50 18 1 9 -4 17 -12 17
-26 0 -29 1 -51 22 -27 25 -30 60 -7 82 22 22 63 13 91 -21 18 -23 24 -25 32
-13 5 8 7 18 4 22 -2 5 0 14 6 21 6 8 6 18 1 27 -7 11 -11 11 -24 1 -11 -9
-20 -10 -35 -2 -33 18 -68 13 -100 -15z m596 -81 c-4 -32 -13 -76 -22 -98
l-15 -40 3 75 c3 68 18 120 34 120 3 0 3 -26 0 -57z m-351 -1 c-2 -9 -7 -41
-11 -69 -4 -29 -11 -53 -17 -53 -6 0 -8 18 -4 48 11 80 17 102 26 97 5 -3 7
-13 6 -23z m159 -72 c-3 -5 -2 -10 4 -10 6 0 8 -7 5 -15 -5 -12 -10 -13 -20
-5 -14 12 -8 40 8 40 5 0 6 -4 3 -10z m1155 -16 c0 -8 -4 -14 -10 -14 -5 0
-10 9 -10 21 0 11 5 17 10 14 6 -3 10 -13 10 -21z m-323 -60 c1 -30 -5 -47
-26 -73 -30 -37 -51 -35 -51 4 0 49 41 120 64 112 6 -2 12 -21 13 -43z m-797
-103 c0 -5 -9 -11 -20 -14 -13 -3 -20 0 -20 9 0 8 9 14 20 14 11 0 20 -4 20
-9z"/>
<path d="M1677 1213 c-11 -10 -8 -41 4 -49 16 -9 43 21 36 40 -7 16 -28 21
-40 9z"/>
<path d="M1478 744 c-20 -7 -47 -19 -60 -27 -12 -8 -50 -15 -83 -16 -49 -1
-77 -10 -152 -47 l-92 -45 -40 26 c-67 41 -141 66 -211 70 -41 2 -80 11 -105
24 -117 62 -265 -23 -265 -152 0 -117 146 -177 210 -86 41 57 1 134 -62 122
-15 -3 -29 -12 -33 -20 -8 -23 2 -28 20 -9 21 21 38 20 58 -2 22 -24 22 -66 0
-87 -64 -65 -173 -17 -173 77 0 116 106 188 223 149 39 -13 47 -30 23 -50 -34
-28 -18 -101 22 -101 43 1 63 38 49 92 -7 26 -6 27 35 26 49 0 135 -30 192
-66 37 -23 38 -26 22 -38 -16 -11 -23 -11 -46 1 -104 54 -190 38 -180 -35 5
-42 100 -52 166 -17 30 16 74 5 74 -17 -1 -22 -50 -48 -78 -41 -71 15 -79 15
-96 -4 -35 -38 17 -67 76 -44 35 14 40 14 73 -7 40 -25 40 -23 19 -55 -23 -36
-21 -113 5 -139 48 -48 88 39 58 125 -15 40 -15 52 -5 69 18 29 45 34 74 15
27 -18 85 -17 91 1 8 24 -29 45 -71 43 -27 -2 -53 4 -74 16 -29 18 -30 20 -16
36 15 17 18 17 56 -3 58 -30 134 -30 158 -1 19 24 17 55 -6 74 -27 22 -89 20
-140 -6 -36 -18 -51 -21 -61 -13 -20 16 -3 30 76 67 42 19 88 33 118 34 l48 2
-3 -34 c-5 -45 15 -81 44 -81 50 0 64 59 23 96 -27 24 -24 29 21 52 53 26 127
22 171 -8 101 -72 64 -258 -48 -244 -51 6 -71 20 -81 57 -8 26 -5 36 11 55 24
26 52 29 65 6 5 -9 15 -15 22 -12 20 6 -24 48 -50 48 -29 0 -70 -44 -70 -74 0
-68 45 -101 131 -97 34 1 65 29 84 74 58 139 -72 272 -217 221z m-683 -109 c2
-21 -16 -45 -34 -45 -35 0 -36 51 -2 77 13 9 18 8 26 -5 5 -9 10 -21 10 -27z
m634 21 c20 -24 21 -55 2 -65 -23 -13 -41 4 -41 39 0 40 18 52 39 26z m-443
-79 l27 -14 -29 -14 c-63 -32 -142 -21 -140 19 2 34 84 39 142 9z m330 15 c21
-14 23 -40 4 -57 -22 -20 -79 -17 -125 7 l-29 16 34 21 c35 21 95 28 116 13z
m-198 -21 c23 -14 -14 -44 -39 -31 -22 12 -25 26 -6 33 19 8 31 8 45 -2z m8
-85 c18 -14 18 -15 -10 -45 l-29 -30 -29 21 -30 21 29 23 c33 27 43 29 69 10z
m-155 -26 c5 0 9 -4 9 -9 0 -12 -36 -20 -61 -14 -21 6 -21 7 -3 20 10 7 25 11
32 8 8 -3 18 -5 23 -5z m289 -10 c0 -17 -20 -21 -42 -9 -22 12 -22 12 -3 19
22 8 45 2 45 -10z m-145 -110 c0 -3 3 -9 6 -15 7 -12 -10 -95 -19 -95 -34 1
-46 59 -24 114 13 34 16 36 26 20 6 -11 11 -21 11 -24z"/>
</g>
</svg>
